<svg id="Layer_1" data-name="Layer 1" xmlns="http://www.w3.org/2000/svg" xmlns:xlink="http://www.w3.org/1999/xlink" viewBox="0 0 3364.7 3364.7"><defs><style>.cls-1{fill:url(#radial-gradient);}.cls-2{fill:#fff;}.cls-3{fill:#264de4;}.cls-4{fill:#2965f1;}.cls-5{fill:#ebebeb;}</style><radialGradient id="radial-gradient" cx="1997.6" cy="3364" r="0" gradientTransform="matrix(1, 0, 0, -1, 0, 3364)" gradientUnits="userSpaceOnUse"><stop offset="0.64" stop-color="#8c3aaa" stop-opacity="0"/><stop offset="1" stop-color="#8c3aaa"/></radialGradient></defs><title>CSS</title><path class="cls-1" d="M1997.6,0"/><rect class="cls-2" width="3364.7" height="3364.7"/><g id="layer1"><g id="g3013"><polygon id="polygon2989" class="cls-3" points="805.66 2953.27 610.77 767.4 2752.23 767.4 2557.13 2952.92 1680.19 3196.04 805.66 2953.27"/><polygon id="polygon2991" class="cls-4" points="2390.11 2813.76 2556.83 946.13 1681.5 946.13 1681.5 3010.21 2390.11 2813.76"/><polygon id="polygon2993" class="cls-5" points="1057.54 1756.83 1081.57 2024.92 1681.5 2024.92 1681.5 1756.83 1057.54 1756.83"/><polygon id="polygon2995" class="cls-5" points="1033.63 1482.31 1681.5 1482.31 1681.5 1214.22 1680.57 1214.22 1009.26 1214.22 1033.63 1482.31"/><polygon id="polygon2997" class="cls-5" points="1680.27 2732.35 1681.5 2732.01 1681.5 2453.09 1680.33 2453.4 1381.75 2372.78 1362.67 2158.97 1217.59 2158.97 1093.55 2158.97 1131.11 2579.9 1680.27 2732.35"/><path id="path2999" d="M1114.75,173.38h324.7V309.16H1250.53V444.94h188.92V580.73h-324.7Z"/><path id="path3001" d="M1504.39,173.38h324.7V291.45H1640.17v23.61h188.92V586.63h-324.7v-124h188.92V439H1504.39Z"/><path id="path3003" d="M1894,173.38h324.7V291.45H2029.81v23.61h188.92V586.63H1894v-124h188.92V439H1894Z"/><polygon id="polygon3005" class="cls-2" points="2352.14 1214.22 1680.57 1214.22 1680.57 1482.31 2058.34 1482.31 2033.94 1756.83 1680.57 1756.83 1680.57 2024.92 2010.69 2024.92 1979.58 2372.61 1680.57 2453.31 1680.57 2732.22 2230.17 2579.9 2234.2 2534.61 2297.2 1828.82 2303.74 1756.83 2352.14 1214.22"/></g></g></svg>