<svg id="Layer_1" data-name="Layer 1" xmlns="http://www.w3.org/2000/svg" xmlns:xlink="http://www.w3.org/1999/xlink" viewBox="0 0 3364.7 3364.7"><defs><style>.cls-1{fill:url(#radial-gradient);}.cls-2{fill:#fff;}.cls-3{fill:#e44d26;}.cls-4{fill:#f16529;}.cls-5{fill:#ebebeb;}</style><radialGradient id="radial-gradient" cx="0" cy="3364" r="0" gradientTransform="matrix(1, 0, 0, -1, 0, 3364)" gradientUnits="userSpaceOnUse"><stop offset="0.64" stop-color="#8c3aaa" stop-opacity="0"/><stop offset="1" stop-color="#8c3aaa"/></radialGradient></defs><title>html</title><path class="cls-1" d="M0,0"/><rect class="cls-2" width="3364.7" height="3364.7"/><path class="cls-3" d="M2752.23,847.4,2557.14,3032.93,1680.19,3276,805.66,3033.26,610.77,847.4H2752.23Z"/><path class="cls-4" d="M1681.5,3090.21l708.62-196.45,166.71-1867.63H1681.5Z"/><path class="cls-5" d="M1302.25,1562.31H1681.5V1294.22H1009.26l6.41,71.92,65.89,738.78H1681.5V1836.83H1326.75ZM1362.67,2239H1093.55l37.56,420.94,549.16,152.44,1.23-.34V2533.08l-1.18.31-298.57-80.62L1362.67,2239Z"/><path d="M810,253.38H946.25V388h124.63V253.38h136.25V661H1070.89V524.49H946.26V661H810V253.38Zm576.26,135.17H1266.35V253.38h376.18V388.55h-120V661H1386.3V388.55h0Zm316-135.17h142.06l87.38,143.22L2019,253.38h142.11V661H2025.4V459l-93.73,144.93h-2.35L1835.53,459V661h-133.3Zm526.65,0h136.28V526.26h191.59V661H2228.88V253.38Z"/><path class="cls-2" d="M1680.58,2104.92H2010.7l-31.13,347.69-299,80.7v278.91l549.6-152.31,4-45.3,63-705.79,6.54-72H1680.58v268.09Zm0-543.27v.65h647.56l5.37-60.25,12.22-135.91,6.4-71.92H1680.58v267.44Z"/></svg>