<svg id="Layer_1" data-name="Layer 1" xmlns="http://www.w3.org/2000/svg" xmlns:xlink="http://www.w3.org/1999/xlink" viewBox="0 0 3364.7 3365.49"><defs><style>.cls-1{fill:url(#radial-gradient);}.cls-2{fill:#300;}.cls-3{fill:#ff9a00;}</style><radialGradient id="radial-gradient" cx="0" cy="3364" r="0" gradientTransform="matrix(1, 0, 0, -1, 0, 3364)" gradientUnits="userSpaceOnUse"><stop offset="0.64" stop-color="#8c3aaa" stop-opacity="0"/><stop offset="1" stop-color="#8c3aaa"/></radialGradient></defs><title>illustrator</title><path class="cls-1" d="M0,0"/><g id="Illustrator"><path id="_16" data-name=" 16" class="cls-2" d="M525.56,0H2839.14c290.48,0,525.56,235.08,525.56,525.56V2839.93c0,290.48-235.08,525.56-525.56,525.56H525.56C235.08,3365.49,0,3130.41,0,2839.93V526.35C0,235.08,235.08,0,525.56,0Z"/><path id="_30" data-name=" 30" class="cls-3" d="M1640.79,2048.42H1127.11l-105.27,342.72c-3.17,11.87-14.25,20.58-26.91,19.79H734.52c-15,0-19.79-7.92-15.83-24.54l443.24-1280.66c4.75-13.46,8.71-28.49,13.46-45.91,6.33-24.54,8.71-50.66,8.71-76A14.6,14.6,0,0,1,1196,968h357.76c10.29,0,16.62,4,17.41,11.08L2076.92,2388c4.75,15,0,22.16-13.46,22.16h-288.9c-10.29.79-19.79-5.54-22.16-15.83Zm-436.12-236.66h376.76c-8.71-29.29-39.58-98.15-51.45-135.35s-28.5-66.49-41.16-108.44c-13.46-41.95-26.91-84.69-40.37-126.64s-25.33-83.11-37.2-122.68c-11.08-39.58-21.37-75.19-30.08-107.65h-2.37c-12.66,60.15-28.5,119.52-46.7,178.09-20.58,66.49-42,134.56-63.32,204.21-21.37,70.44-43.53,159.88-64.11,218.46Z"/><path id="_31" data-name=" 31" class="cls-3" d="M2379.27,1201.51a162.89,162.89,0,0,1-122.68-49.07c-31.66-34-48.28-79.94-46.7-126.64a164.14,164.14,0,0,1,49.87-123.48c33.24-31.66,77.57-49.07,123.48-47.49a168.55,168.55,0,0,1,125.85,47.49A172.61,172.61,0,0,1,2555,1025.79c1.58,46.7-15,92.61-47.49,126.64C2473.46,1185.68,2426.76,1203.88,2379.27,1201.51ZM2235.22,2389.56V1373.27c0-13.46,5.54-19.79,17.41-19.79h252.49c11.87,0,17.41,6.33,17.41,19.79v1016.3c0,15-5.54,22.16-17.41,22.16H2255C2242.34,2411.72,2235.22,2404.6,2235.22,2389.56Z"/></g></svg>