<?xml version="1.0" encoding="utf-8"?>
<!-- Generator: Adobe Illustrator 21.1.0, SVG Export Plug-In . SVG Version: 6.00 Build 0)  -->
<svg version="1.1" id="Layer_1" xmlns="http://www.w3.org/2000/svg" xmlns:xlink="http://www.w3.org/1999/xlink" x="0px" y="0px"
	 viewBox="0 0 3354.4 3270.6" style="enable-background:new 0 0 3354.4 3270.6;" xml:space="preserve">
<style type="text/css">
	.st0{fill:#001E36;}
	.st1{fill:#31A8FF;}
</style>
<title>photoshop</title>
<g id="Layer_2_1_">
	<g id="Surfaces">
		<g id="Photo_Surface">
			<g id="Outline_no_shadow">
				<path class="st0" d="M594,0h2166.4c328.5,0,594,265.6,594,594v2082.5c0,328.5-265.6,594-594,594H594c-328.5,0-594-265.6-594-594
					V594C0,265.6,265.6,0,594,0z"/>
			</g>
		</g>
	</g>
	<g id="Outlined_Mnemonics_Logos">
		<g id="Ps">
			<path class="st1" d="M754.7,2293.6V855.4c0-9.8,4.2-15.4,14-15.4c23.8,0,46.1,0,78.3-1.4c33.5-1.4,68.5-1.4,106.2-2.8
				c37.7-1.4,78.3-1.4,121.6-2.8c43.3-1.4,85.3-1.4,127.2-1.4c114.6,0,209.7,14,287.9,43.3c69.9,23.8,134.2,62.9,187.3,114.6
				c44.7,44.7,79.7,99.2,102,159.3c21,58.7,32.1,118.8,32.1,181.7c0,120.2-28,219.4-83.9,297.7c-55.9,78.3-134.2,137-225,170.5
				c-95,34.9-199.9,47.5-314.5,47.5c-33.5,0-55.9,0-69.9-1.4c-14-1.4-33.5-1.4-60.1-1.4v448.7c1.4,9.8-5.6,18.2-15.4,19.6
				c-1.4,0-2.8,0-5.6,0H771.5C760.3,2311.7,754.7,2306.1,754.7,2293.6z M1059.4,1109.7v469.6c19.6,1.4,37.7,2.8,54.5,2.8h74.1
				c54.5,0,109-8.4,160.7-25.2c44.7-12.6,83.9-39.1,114.6-74.1c29.4-34.9,43.3-82.5,43.3-144c1.4-43.3-9.8-86.7-32.1-124.4
				c-23.8-36.3-57.3-64.3-97.8-79.7c-51.7-21-107.6-29.4-164.9-28c-36.3,0-68.5,0-95,1.4C1088.8,1107,1069.2,1108.3,1059.4,1109.7
				L1059.4,1109.7z"/>
			<path class="st1" d="M2683.5,1494.1c-41.9-22.4-86.7-37.7-134.2-47.5c-51.7-11.2-103.4-18.2-156.5-18.2
				c-28-1.4-57.3,2.8-83.9,9.8c-18.2,4.2-33.5,14-43.3,28c-7,11.2-11.2,25.2-11.2,37.7c0,12.6,5.6,25.2,14,36.3
				c12.6,15.4,29.4,28,47.5,37.7c32.1,16.8,65.7,32.1,99.2,46.1c75.5,25.2,148.2,60.1,215.2,102c46.1,29.4,83.9,68.5,110.4,116
				c22.4,44.7,33.5,93.6,32.1,144c1.4,65.7-18.2,131.4-54.5,185.9c-39.1,55.9-93.6,99.2-156.5,124.4c-68.5,29.4-152.3,44.7-253,44.7
				c-64.3,0-127.2-5.6-190.1-18.2c-48.9-8.4-97.8-23.8-142.6-44.7c-9.8-5.6-16.8-15.4-15.4-26.6v-243.2c0-4.2,1.4-9.8,5.6-12.6
				c4.2-2.8,8.4-1.4,12.6,1.4c54.5,32.1,111.8,54.5,173.3,68.5c53.1,14,109,21,164.9,21c53.1,0,90.8-7,116-19.6
				c22.4-9.8,37.7-33.5,37.7-58.7c0-19.6-11.2-37.7-33.5-55.9c-22.4-18.2-68.5-39.1-137-65.7c-71.3-25.2-137-58.7-198.5-100.6
				c-43.3-30.7-79.7-71.3-106.2-118.8c-22.4-44.7-33.5-93.6-32.1-142.6c0-60.1,16.8-117.4,47.5-169.1
				c34.9-55.9,86.7-100.6,146.8-128.6c65.7-33.5,148.2-48.9,247.4-48.9c57.3,0,116,4.2,173.3,12.6c41.9,5.6,82.5,16.8,120.2,32.1
				c5.6,1.4,11.2,7,14,12.6c1.4,5.6,2.8,11.2,2.8,16.8v227.8c0,5.6-2.8,11.2-7,14C2696.1,1496.9,2689.1,1496.9,2683.5,1494.1z"/>
		</g>
	</g>
</g>
</svg>
