<svg id="Layer_1" data-name="Layer 1" xmlns="http://www.w3.org/2000/svg" xmlns:xlink="http://www.w3.org/1999/xlink" viewBox="0 0 3364.15 3280.04"><defs><style>.cls-1{fill:url(#radial-gradient);}.cls-2{fill:#00005b;}.cls-3{fill:#99f;}</style><radialGradient id="radial-gradient" cx="0" cy="3364" r="0" gradientTransform="matrix(1, 0, 0, -1, 0, 3364)" gradientUnits="userSpaceOnUse"><stop offset="0.64" stop-color="#8c3aaa" stop-opacity="0"/><stop offset="1" stop-color="#8c3aaa"/></radialGradient></defs><title>premiere</title><path class="cls-1" d="M0,0" transform="translate(0 -42.33)"/><path class="cls-2" d="M595.73,42.33H2768.41c329.41,0,595.73,266.33,595.73,595.73V2726.64c0,329.41-266.33,595.73-595.73,595.73H595.73C266.33,3322.37,0,3056,0,2726.64V638.06C0,308.66,266.33,42.33,595.73,42.33Z" transform="translate(0 -42.33)"/><path class="cls-3" d="M799,2342.56V900.19c0-9.81,4.21-15.42,14-15.42,23.83,0,46.26,0,78.5-1.4,33.64-1.4,68.68-1.4,106.53-2.8s78.5-1.4,122-2.8,85.51-1.4,127.56-1.4c114.94,0,210.26,14,288.76,43.45a500.56,500.56,0,0,1,187.83,114.94,446.31,446.31,0,0,1,102.33,159.8c21,58.87,32.24,119.15,32.24,182.22q0,180.82-84.1,298.57c-56.07,78.5-134.57,137.37-225.68,171-95.32,35-200.45,47.66-315.39,47.66-33.64,0-56.07,0-70.09-1.4s-33.64-1.4-60.27-1.4v450c1.4,9.81-5.61,18.22-15.42,19.62H815.81c-11.21,0-16.82-5.61-16.82-18.22ZM1104.56,1155.3v471c19.62,1.4,37.85,2.8,54.67,2.8h74.29a523.6,523.6,0,0,0,161.2-25.23c44.86-12.62,84.1-39.25,114.94-74.29,29.44-35,43.45-82.7,43.45-144.38a230.71,230.71,0,0,0-32.24-124.75c-23.83-36.44-57.47-64.48-98.12-79.9-51.86-21-107.93-29.44-165.4-28-36.44,0-68.68,0-95.32,1.4-28-1.4-47.66,0-57.47,1.4Z" transform="translate(0 -42.33)"/><path class="cls-3" d="M2054.93,1236.6h245.3c14,0,25.23,9.81,29.44,22.43a142.34,142.34,0,0,1,8.41,35c2.8,14,5.61,29.44,7,43.45,1.4,15.42,2.8,32.24,2.8,50.46a521.7,521.7,0,0,1,150-120.55c64.48-36.44,138.77-54.67,213.06-54.67,9.81-1.4,18.22,5.61,19.62,15.42v278.94c0,11.21-7,15.42-22.43,15.42-50.46-1.4-102.33,2.8-151.39,14A576.83,576.83,0,0,0,2439,1574.42c-26.63,12.62-51.86,29.44-71.49,51.86v714.88c0,14-5.61,19.62-18.22,19.62H2073.15c-11.21,1.4-21-5.61-22.43-16.82V1561.8c0-33.64,0-68.68-1.4-105.13s-1.4-72.89-2.8-109.33c0-32.24-2.8-63.08-5.61-95.32-1.4-7,2.8-14,9.81-15.42,0-1.4,2.8-1.4,4.21,0Z" transform="translate(0 -42.33)"/></svg>